<?xml version="1.0" standalone="no"?><!DOCTYPE svg PUBLIC "-//W3C//DTD SVG 1.1//EN" "http://www.w3.org/Graphics/SVG/1.1/DTD/svg11.dtd"><svg t="1560403343285" class="icon" style="" viewBox="0 0 1024 1024" version="1.1" xmlns="http://www.w3.org/2000/svg" p-id="2903" xmlns:xlink="http://www.w3.org/1999/xlink" width="128" height="128"><defs><style type="text/css"></style></defs><path d="M860.992 884.352H162.88A163.136 163.136 0 0 1 0 721.408v-581.76h860.992A163.2 163.2 0 0 1 1024 302.592v418.88a163.2 163.2 0 0 1-163.008 162.88zM46.528 186.176v535.232a116.48 116.48 0 0 0 116.352 116.352h698.112a116.416 116.416 0 0 0 116.352-116.352V302.592a116.416 116.416 0 0 0-116.352-116.352H46.528z" fill="#cdcdcd" p-id="2904"></path><path d="M535.232 186.176H0v-23.232A163.136 163.136 0 0 1 162.88 0h279.296c51.328 0 93.056 41.728 93.056 93.12v93.056zM48.896 139.648h439.872v-46.528a46.72 46.72 0 0 0-46.592-46.592H162.88A116.672 116.672 0 0 0 48.896 139.648z" fill="#cdcdcd" p-id="2905"></path></svg>