<?xml version="1.0" standalone="no"?><!DOCTYPE svg PUBLIC "-//W3C//DTD SVG 1.1//EN" "http://www.w3.org/Graphics/SVG/1.1/DTD/svg11.dtd"><svg t="1561105747145" class="icon" viewBox="0 0 1024 1024" version="1.1" xmlns="http://www.w3.org/2000/svg" p-id="3895" xmlns:xlink="http://www.w3.org/1999/xlink" width="128" height="128"><defs><style type="text/css"></style></defs><path d="M927.07320518 379.83383281c-37.62568388-1.58758154-71.12365489-21.90862617-90.01587568-54.29528964-19.0509794-32.86293838-19.52725342-72.55247871-1.58758155-106.2092083 3.8101957-7.14411739 3.65143799-16.03457402-0.31751631-23.01993282-2.06385644-3.65143799-5.08026094-6.66784247-8.73169893-8.73169892L635.11695195 76.92326651c-3.65143799-2.06385644-7.62039141-3.17516308-11.90686201-3.17516309-8.25542402 0-15.87581542 4.12771201-20.16228603 11.27182939-20.00352833 32.38666435-54.77156455 51.75516006-92.71476475 51.75516006-38.10195791 0-72.71123643-19.3684957-92.71476475-51.75516006-4.2864706-6.98535879-11.90686201-11.2718294-20.16228603-11.27182939-4.12771201 0-8.25542402 1.11130752-11.90686114 3.17516309L194.08678789 187.57770313c-3.65143799 2.06385644-6.66784247 5.08026094-8.73169893 8.89045664-4.12771201 7.14411739-4.12771201 15.71705771-0.3175163 23.01993369 18.09843047 33.49797099 17.46339785 73.18751133-1.58758155 106.20920743-18.73346308 32.54542207-52.39019268 52.8664667-89.85711796 54.29529052-12.70065234 0.4762749-22.70241651 10.95431308-22.70241651 23.65496543v220.19756572c0 4.12771201 1.11130752 8.25542402 3.17516308 11.90686201l0.63503262 0.95254892c4.12771201 6.98535879 11.2718294 11.43058711 19.52725342 11.90686202 37.30816758 1.74634013 70.80613857 22.06738388 89.38084395 54.29528965 18.41594677 32.06914805 19.52725342 70.80613857 2.69888818 103.98659414-5.71529355 11.2718294-1.58758154 24.92503066 9.20797295 31.27535684l191.62109794 110.65443662c3.4926794 2.06385644 7.77914999 3.17516308 12.06561974 3.17516308 8.09666631 0 15.39954141-3.9689543 19.84476973-10.79555449 20.16228604-30.95784053 54.29529052-49.53254502 91.28594091-49.5325459 36.99065127 0 71.12365489 18.57470449 91.28594091 49.5325459 4.44522832 6.66784247 11.74810342 10.7955545 19.84476973 10.79555449h0.31751632c4.12771201 0 8.25542402-1.11130752 11.906862-3.17516308l191.62109707-110.65443662c10.95431308-6.35032617 14.92326651-20.00352833 9.20797383-31.27535684-16.82836435-33.02169697-15.87581542-71.91744609 2.69888819-103.98659414 18.57470449-32.22790576 52.07267637-52.54895039 89.38084306-54.29528965 8.09666631-0.31751631 15.39954141-4.76274463 19.5272543-11.90686202l0.63503262-1.11130751c2.06385644-3.65143799 3.17516308-7.62039141 3.17516308-11.90686114V403.64755683c-0.15875859-12.85941094-10.16052188-23.17869141-22.86117509-23.81372402z m-24.60751436 44.76980127v179.07920245c-44.76980039 8.41418262-83.34803321 35.72058604-106.36796601 75.41012548-22.54365879 39.05450684-27.14764482 85.72940596-12.70065323 128.27659131l-155.58299473 89.85711797c-29.68777529-33.81548731-72.2349624-53.183983-117.48103769-53.18398301s-87.79326153 19.3684957-117.48103682 53.18398301l-155.5829956-89.85711797c14.44699248-42.54718623 9.84300557-89.22208535-12.70065234-128.27659131-22.8611751-39.68953945-61.59816563-66.99594287-106.36796602-75.41012548V424.60363408c44.76980039-8.41418262 83.34803321-35.72058604 106.36796602-75.41012549 23.17869141-40.32457207 27.46516113-87.95202012 11.5893457-131.29299668L390.7881459 128.67842656c29.68777529 35.40306972 73.02875273 55.56535577 119.54489326 55.56535577 46.51614053 0 89.85711797-20.16228604 119.54489326-55.56535577L784.34962051 217.90051191c-15.71705771 43.34097744-11.5893457 90.96842461 11.5893457 131.29299668 23.01993281 39.68953945 61.75692334 67.15470059 106.52672461 75.41012549z" fill="#bfbfbf" p-id="3896"></path><path d="M510.33303916 325.85605947c-103.98659414 0-188.60469258 84.61809844-188.60469169 188.6046917s84.61809844 188.60469258 188.60469169 188.60469258S698.93773174 618.44734531 698.93773174 514.46075117s-84.61809844-188.60469258-188.60469258-188.60469169z m141.13600313 188.44593399c0 77.79149737-63.34450487 141.13600313-141.13600313 141.13600224-77.79149737 0-141.13600313-63.34450487-141.13600225-141.13600224 0-77.79149737 63.34450487-141.13600313 141.13600225-141.13600313 77.79149737 0 141.13600313 63.34450487 141.13600313 141.13600313z" fill="#bfbfbf" p-id="3897"></path></svg>