<?xml version="1.0" standalone="no"?><!DOCTYPE svg PUBLIC "-//W3C//DTD SVG 1.1//EN" "http://www.w3.org/Graphics/SVG/1.1/DTD/svg11.dtd"><svg t="1561105615944" class="icon" viewBox="0 0 1025 1024" version="1.1" xmlns="http://www.w3.org/2000/svg" p-id="2800" width="128.125" height="128" xmlns:xlink="http://www.w3.org/1999/xlink"><defs><style type="text/css"></style></defs><path d="M616.361062 423.640435h-211.820218c-56.500296 0-105.910109-49.409813-105.910109-105.910108V105.910109C298.630735 49.409813 348.040548 0 404.540844 0h211.820218c56.500296 0 105.87817 49.409813 105.878169 105.910109v211.820218c0 63.558841-49.409813 105.910109-105.878169 105.910108z" fill="#8A8A8A" p-id="2801"></path><path d="M404.540844 70.585446c-21.175634 0-35.292723 14.117089-35.292723 35.292724v211.820217c0 21.175634 14.117089 35.292723 35.292723 35.292724h211.820218c21.175634 0 35.292723-14.117089 35.292723-35.292724V105.910109c0-21.175634-14.117089-35.292723-35.292723-35.292723h-211.820218zM176.495555 1023.776426h-70.585446C49.409813 1023.776426 0 974.334675 0 917.834378v-70.585446c0-56.500296 49.409813-105.910109 105.910109-105.910109h70.585446c56.500296 0 105.910109 49.441752 105.910109 105.910109v70.585446c0 63.622719-49.409813 105.942048-105.910109 105.942048z" fill="#8A8A8A" p-id="2802"></path><path d="M105.910109 811.956208c-21.207573 0-35.292723 14.117089-35.292723 35.292724v70.585446c0 21.175634 14.117089 35.292723 35.292723 35.292723h70.585446c21.207573 0 35.292723-14.117089 35.292724-35.292723v-70.585446c0-21.175634-14.117089-35.292723-35.292724-35.292724h-70.585446zM917.866317 1023.776426h-70.617385c-56.468357 0-105.910109-49.441752-105.910109-105.910109v-70.585446c0-56.500296 49.473691-105.910109 105.910109-105.910109h70.617385c56.468357 0 105.87817 49.441752 105.87817 105.910109v70.585446c0.031939 63.59078-49.409813 105.910109-105.87817 105.910109z" fill="#8A8A8A" p-id="2803"></path><path d="M847.248932 811.956208c-21.175634 0-35.292723 14.117089-35.292724 35.292724v70.585446c0 21.175634 14.117089 35.292723 35.292724 35.292723h70.617385c21.143695 0 35.260784-14.117089 35.260784-35.292723v-70.585446c0-21.175634-14.117089-35.292723-35.260784-35.292724h-70.617385zM545.743676 1023.776426h-70.585446c-56.500296 0-105.910109-49.441752-105.910109-105.910109v-70.585446c0-56.500296 49.409813-105.910109 105.910109-105.910109h70.585446c56.500296 0 105.910109 49.441752 105.910109 105.910109v70.585446c0 63.59078-49.441752 105.910109-105.910109 105.910109z" fill="#8A8A8A" p-id="2804"></path><path d="M475.126291 811.956208c-21.175634 0-35.292723 14.117089-35.292724 35.292724v70.585446c0 21.175634 14.117089 35.292723 35.292724 35.292723h70.585446c21.175634 0 35.292723-14.117089 35.292723-35.292723v-70.585446c0-21.175634-14.117089-35.292723-35.292723-35.292724h-70.585446zM176.495555 811.956208h-70.585446v-151.231714c0-56.500296 49.409813-105.87817 105.910109-105.87817h600.13599c56.500296 0 105.910109 49.409813 105.910109 105.87817v151.231714h-70.617385v-151.231714c0-21.175634-14.117089-35.292723-35.292724-35.292723H211.820218c-21.175634 0-35.292723 14.117089-35.292724 35.292723v151.231714z" fill="#8A8A8A" p-id="2805"></path><path d="M475.126291 398.18496h70.585446V751.20801h-70.585446V398.18496z" fill="#8A8A8A" p-id="2806"></path></svg>